<svg viewBox="0 0 27 27" fill="white" xmlns="http://www.w3.org/2000/svg">
<path d="M6.97663 5.44979L6.54456 5.01595C6.11248 4.5821 5.41452 4.59322 4.99353 5.01595L4.98245 5.02707C4.55037 5.46092 4.55037 6.16175 4.98245 6.58448L5.41452 7.01832C5.84659 7.45217 6.53348 7.45217 6.96555 7.01832L6.97663 7.0072C7.4087 6.58448 7.4087 5.87252 6.97663 5.44979ZM3.60868 12.5249H2.47864C1.8693 12.5249 1.38184 13.0143 1.38184 13.6262V13.6373C1.38184 14.2491 1.8693 14.7386 2.47864 14.7386H3.5976C4.21801 14.7497 4.70548 14.2603 4.70548 13.6484V13.6373C4.70548 13.0143 4.21801 12.5249 3.60868 12.5249ZM13.5796 1.45616H13.5685C12.9481 1.45616 12.4606 1.94563 12.4606 2.55747V3.6254C12.4606 4.23724 12.9481 4.72671 13.5574 4.72671H13.5685C14.1889 4.73784 14.6764 4.24837 14.6764 3.63653V2.55747C14.6764 1.94563 14.1889 1.45616 13.5796 1.45616ZM22.1546 5.02707C21.7225 4.59322 21.0246 4.59322 20.5925 5.01595L20.1604 5.44979C19.7283 5.88364 19.7283 6.58448 20.1604 7.0072L20.1715 7.01832C20.6036 7.45217 21.3015 7.45217 21.7225 7.01832L22.1546 6.58448C22.5867 6.15063 22.5867 5.46092 22.1546 5.02707ZM20.1493 21.8248L20.5814 22.2587C21.0135 22.6925 21.7114 22.6925 22.1435 22.2587C22.5756 21.8248 22.5756 21.124 22.1435 20.6901L21.7114 20.2563C21.2794 19.8224 20.5814 19.8336 20.1604 20.2563C19.7173 20.7013 19.7173 21.391 20.1493 21.8248ZM22.4316 13.6262V13.6373C22.4316 14.2491 22.919 14.7386 23.5284 14.7386H24.6473C25.2567 14.7386 25.7441 14.2491 25.7441 13.6373V13.6262C25.7441 13.0143 25.2567 12.5249 24.6473 12.5249H23.5284C22.919 12.5249 22.4316 13.0143 22.4316 13.6262ZM13.5685 6.9627C9.90143 6.9627 6.92124 9.95515 6.92124 13.6373C6.92124 17.3195 9.90143 20.3119 13.5685 20.3119C17.2356 20.3119 20.2158 17.3195 20.2158 13.6373C20.2158 9.95515 17.2356 6.9627 13.5685 6.9627ZM13.5574 25.8184H13.5685C14.1779 25.8184 14.6653 25.329 14.6653 24.7171V23.6492C14.6653 23.0374 14.1779 22.5479 13.5685 22.5479H13.5574C12.9481 22.5479 12.4606 23.0374 12.4606 23.6492V24.7171C12.4606 25.329 12.9481 25.8184 13.5574 25.8184ZM4.98245 22.2475C5.41452 22.6814 6.11248 22.6814 6.54456 22.2475L6.97663 21.8137C7.4087 21.3798 7.39762 20.679 6.97663 20.2563L6.96555 20.2452C6.53348 19.8113 5.83551 19.8113 5.40344 20.2452L4.97137 20.679C4.55037 21.124 4.55037 21.8137 4.98245 22.2475Z"/>
</svg>
