<svg viewBox="0 0 26 26" fill="white" xmlns="http://www.w3.org/2000/svg">
<g clip-path="url(#clip0_1123_302)">
<path d="M5.92243 15.4483C5.70268 15.5257 5.49438 15.6273 5.30076 15.75C4.43886 15.3934 3.63155 14.8629 2.93188 14.1584C0.0907415 11.3269 0.0907415 6.72378 2.93188 3.89223C3.22253 3.60181 3.52772 3.34044 3.8547 3.1081C4.39968 2.7233 5.2571 3.36948 5.19897 3.97209C5.00278 6.04856 5.70035 8.2049 7.29894 9.79492C7.90907 10.4073 8.60144 10.8874 9.34084 11.2355C7.39947 11.5562 5.91883 13.2426 5.91883 15.2748C5.91883 15.333 5.92004 15.3908 5.92243 15.4483Z" />
<path d="M11.5824 6.53538L12.1216 8.32311C12.0685 8.3658 12.0161 8.40942 11.9645 8.45397L10.393 7.38764L8.57438 8.62171L9.20366 6.53538L7.45415 5.21268L9.66005 5.15132L10.393 3.1059L11.126 5.15132L13.3319 5.21268L11.5824 6.53538Z" />
<path d="M17.8001 5.32177L18.9341 4.46952L17.5096 4.43543L17.0325 3.10591L16.5553 4.43543L15.1308 4.46952L16.2649 5.32177L15.8569 6.67175L17.0325 5.87404L18.208 6.67175L17.8001 5.32177Z" />
<path d="M7.96595 22.4398H21.2722C23.5334 22.4398 25.3665 20.6067 25.3665 18.3455C25.3665 16.4252 24.0444 14.8136 22.2607 14.3714C22.2839 14.164 22.2958 13.9531 22.2958 13.7395C22.2958 10.6304 19.7753 8.10993 16.6662 8.10993C14.0874 8.10993 11.9136 9.84387 11.247 12.2095C11.1773 12.206 11.1072 12.2042 11.0366 12.2042C8.77544 12.2042 6.94239 14.0372 6.94239 16.2984C6.94239 16.3565 6.9436 16.4143 6.94599 16.4719C5.75146 16.8924 4.89526 18.0307 4.89526 19.3691C4.89526 21.065 6.27006 22.4398 7.96595 22.4398Z" />
</g>
<defs>
<clipPath id="clip0_1123_302">
<rect width="24.5654" height="24.5654"  transform="translate(0.801025 0.945007)"/>
</clipPath>
</defs>
</svg>
