<svg viewBox="0 0 15 16" fill="currentColor" xmlns="http://www.w3.org/2000/svg">
<path fill-rule="evenodd" clip-rule="evenodd" d="M14.6782 7.83721C14.6782 3.86151 11.4553 0.638569 7.47958 0.638569C3.50388 0.638569 0.280936 3.86151 0.280936 7.83721C0.280936 11.8129 3.50388 15.0359 7.47958 15.0359C11.4553 15.0359 14.6782 11.8129 14.6782 7.83721ZM6.84441 3.60272C6.84441 3.25192 7.12878 2.96754 7.47958 2.96754C7.83038 2.96754 8.11475 3.25192 8.11475 3.60272V7.83721C8.11475 8.05621 8.00193 8.25977 7.81622 8.37584L5.27552 9.96377C4.97805 10.1497 4.58618 10.0593 4.40026 9.76179C4.21433 9.46432 4.30476 9.07244 4.60224 8.88652L6.84441 7.48517V3.60272Z"/>
</svg>
