<svg viewBox="0 0 17 22" fill="currentColor" xmlns="http://www.w3.org/2000/svg">
<path d="M9.17692 1.33333L8.49984 0.75L7.82275 1.33333C7.45817 1.60417 0.166504 7.95833 0.166504 13.5833C0.166504 15.7935 1.04448 17.9131 2.60728 19.4759C4.17008 21.0387 6.2897 21.9167 8.49984 21.9167C10.71 21.9167 12.8296 21.0387 14.3924 19.4759C15.9552 17.9131 16.8332 15.7935 16.8332 13.5833C16.8332 7.95833 9.5415 1.60417 9.17692 1.33333ZM10.8228 18.2396L9.89567 16.375C10.4146 16.116 10.8511 15.7176 11.1565 15.2246C11.4619 14.7316 11.624 14.1633 11.6248 13.5833H13.7082C13.7072 14.5509 13.4367 15.499 12.927 16.3214C12.4174 17.1439 11.6887 17.8081 10.8228 18.2396Z"/>
</svg>
