<svg viewBox="0 0 15 23" fill="currentColor" xmlns="http://www.w3.org/2000/svg">
<path d="M3.3335 4.20833C3.3335 3.10326 3.77248 2.04345 4.55388 1.26205C5.33529 0.480651 6.39509 0.0416641 7.50016 0.0416641C8.60523 0.0416641 9.66504 0.480651 10.4464 1.26205C11.2278 2.04345 11.6668 3.10326 11.6668 4.20833V9.68229C12.9408 10.5693 13.8984 11.8398 14.4002 13.3088C14.9021 14.7778 14.9221 16.3686 14.4572 17.8497C13.9924 19.3309 13.0669 20.625 11.8156 21.5437C10.5644 22.4624 9.05252 22.9579 7.50016 22.9579C5.94781 22.9579 4.43597 22.4624 3.18468 21.5437C1.93339 20.625 1.00797 19.3309 0.543111 17.8497C0.0782484 16.3686 0.0982073 14.7778 0.600082 13.3088C1.10196 11.8398 2.05955 10.5693 3.3335 9.68229V4.20833ZM4.52516 11.3906C3.61493 12.0241 2.93063 12.9315 2.57189 13.9808C2.21314 15.0301 2.19869 16.1665 2.53062 17.2247C2.86256 18.2828 3.52355 19.2073 4.41738 19.8637C5.31121 20.5201 6.39121 20.874 7.50016 20.874C8.60911 20.874 9.68911 20.5201 10.5829 19.8637C11.4768 19.2073 12.1378 18.2828 12.4697 17.2247C12.8016 16.1665 12.7872 15.0301 12.4284 13.9808C12.0697 12.9315 11.3854 12.0241 10.4752 11.3906L9.5835 10.7687V4.20833C9.5835 3.6558 9.364 3.12589 8.9733 2.73519C8.5826 2.34449 8.0527 2.125 7.50016 2.125C6.94763 2.125 6.41773 2.34449 6.02702 2.73519C5.63632 3.12589 5.41683 3.6558 5.41683 4.20833V10.7687L4.52516 11.3906ZM6.4585 11.6312V4.20833H8.54183V11.6312C9.52151 11.8872 10.3745 12.491 10.9416 13.3299C11.5087 14.1687 11.7511 15.1853 11.6235 16.1898C11.496 17.1943 11.0072 18.118 10.2484 18.7885C9.48959 19.459 8.51272 19.8304 7.50016 19.8333C6.4853 19.8343 5.50497 19.4649 4.74316 18.7944C3.98135 18.1239 3.49044 17.1984 3.36258 16.1916C3.23472 15.1848 3.47869 14.166 4.04871 13.3264C4.61873 12.4867 5.4756 11.884 6.4585 11.6312ZM7.50016 17.75C8.0527 17.75 8.5826 17.5305 8.9733 17.1398C9.364 16.7491 9.5835 16.2192 9.5835 15.6667C9.5835 15.1141 9.364 14.5842 8.9733 14.1935C8.5826 13.8028 8.0527 13.5833 7.50016 13.5833C6.94763 13.5833 6.41773 13.8028 6.02702 14.1935C5.63632 14.5842 5.41683 15.1141 5.41683 15.6667C5.41683 16.2192 5.63632 16.7491 6.02702 17.1398C6.41773 17.5305 6.94763 17.75 7.50016 17.75Z"/>
</svg>
