<svg viewBox="0 0 23 23" fill="currentColor" xmlns="http://www.w3.org/2000/svg">
<path d="M11.5002 0.302094C11.9316 0.302094 12.2814 0.651871 12.2814 1.08334V2.12501C12.2814 2.55648 11.9316 2.90626 11.5002 2.90626C11.0687 2.90626 10.7189 2.55648 10.7189 2.12501V1.08334C10.7189 0.651871 11.0687 0.302094 11.5002 0.302094Z" />
<path d="M11.5002 5.51043C8.19221 5.51043 5.51058 8.19206 5.51058 11.5C5.51058 14.808 8.19221 17.4896 11.5002 17.4896C14.8081 17.4896 17.4897 14.808 17.4897 11.5C17.4897 8.19206 14.8081 5.51043 11.5002 5.51043Z" />
<path d="M4.68691 3.58191C4.38181 3.27681 3.88715 3.27681 3.58206 3.58191C3.27696 3.88701 3.27696 4.38167 3.58206 4.68677L4.31862 5.42334C4.62372 5.72843 5.11838 5.72843 5.42348 5.42334C5.72858 5.11824 5.72858 4.62358 5.42348 4.31848L4.68691 3.58191Z" />
<path d="M22.6981 11.5C22.6981 11.9315 22.3483 12.2813 21.9168 12.2813H20.8752C20.4437 12.2813 20.0939 11.9315 20.0939 11.5C20.0939 11.0685 20.4437 10.7188 20.8752 10.7188H21.9168C22.3483 10.7188 22.6981 11.0685 22.6981 11.5Z" />
<path d="M19.4183 4.68676C19.7234 4.38166 19.7234 3.887 19.4183 3.5819C19.1132 3.27681 18.6185 3.27681 18.3134 3.5819L17.5768 4.31847C17.2717 4.62357 17.2717 5.11823 17.5768 5.42333C17.8819 5.72842 18.3766 5.72842 18.6817 5.42333L19.4183 4.68676Z" />
<path d="M11.5002 20.0938C11.9316 20.0938 12.2814 20.4435 12.2814 20.875V21.9167C12.2814 22.3482 11.9316 22.6979 11.5002 22.6979C11.0687 22.6979 10.7189 22.3482 10.7189 21.9167V20.875C10.7189 20.4435 11.0687 20.0938 11.5002 20.0938Z" />
<path d="M18.6818 17.5767C18.3767 17.2716 17.882 17.2716 17.5769 17.5767C17.2718 17.8818 17.2718 18.3765 17.5769 18.6816L18.3135 19.4181C18.6186 19.7232 19.1132 19.7232 19.4183 19.4181C19.7234 19.113 19.7234 18.6184 19.4183 18.3133L18.6818 17.5767Z" />
<path d="M2.90641 11.5C2.90641 11.9315 2.55664 12.2813 2.12516 12.2813H1.0835C0.652024 12.2813 0.302246 11.9315 0.302246 11.5C0.302246 11.0685 0.652024 10.7188 1.0835 10.7188H2.12516C2.55664 10.7188 2.90641 11.0685 2.90641 11.5Z" />
<path d="M5.42341 18.6815C5.72851 18.3764 5.72851 17.8818 5.42341 17.5767C5.11831 17.2716 4.62365 17.2716 4.31855 17.5767L3.58199 18.3133C3.27689 18.6184 3.27689 19.113 3.58199 19.4181C3.88708 19.7232 4.38174 19.7232 4.68684 19.4181L5.42341 18.6815Z" />
</svg>
