<svg viewBox="0 0 27 27" fill="white" xmlns="http://www.w3.org/2000/svg">
<g clip-path="url(#clip0_1123_701)">
<path d="M3.74103 2.71119L4.02895 2.9991C4.31687 3.27964 4.31687 3.75212 4.02895 4.03266L4.02157 4.04004C3.73365 4.32796 3.27593 4.32796 2.98801 4.04004L2.7001 3.75212C2.41218 3.47159 2.41218 3.00649 2.7001 2.71857L2.70748 2.71119C2.98802 2.43065 3.45311 2.42327 3.74103 2.71119Z"/>
<path d="M1.03165 7.69438H1.78467C2.1907 7.69438 2.51553 8.01921 2.51553 8.43263V8.44001C2.51553 8.84605 2.1907 9.17088 1.77728 9.1635H1.03165C0.625612 9.1635 0.300781 8.83867 0.300781 8.43263V8.42525C0.300781 8.01921 0.625612 7.69438 1.03165 7.69438Z"/>
<path d="M8.42154 0.348783H8.42892C8.83496 0.348783 9.15979 0.673614 9.15979 1.07965V1.79576C9.15979 2.20179 8.83496 2.52662 8.42154 2.51924H8.41416C8.00812 2.51924 7.68329 2.19441 7.68329 1.78837V1.07965C7.68329 0.673614 8.00812 0.348783 8.42154 0.348783Z"/>
<path d="M13.1021 2.71119C13.39 2.43065 13.8551 2.43065 14.143 2.71857C14.4309 3.00649 14.4309 3.4642 14.143 3.75212L13.8551 4.04004C13.5745 4.32796 13.1094 4.32796 12.8215 4.04004L12.8141 4.03266C12.5262 3.75212 12.5262 3.28702 12.8141 2.9991L13.1021 2.71119Z"/>
<path d="M3.99204 8.43263C3.99204 5.98902 5.97793 4.00313 8.42154 4.00313C10.0988 4.00313 11.5605 4.93877 12.3123 6.31584C11.4551 7.07801 10.8146 8.07858 10.4948 9.21354C10.4194 9.20973 10.3435 9.2078 10.2672 9.2078C8.32714 9.2078 6.67842 10.455 6.07904 12.1913C4.82644 11.4082 3.99204 10.0166 3.99204 8.43263Z"/>
<path d="M3.74103 14.1467C3.45311 14.4346 2.98801 14.4346 2.7001 14.1467C2.41218 13.8588 2.41218 13.4011 2.69271 13.1058L2.98063 12.8178C3.26855 12.5299 3.73365 12.5299 4.02157 12.8178L4.02895 12.8252C4.30948 13.1058 4.31687 13.5709 4.02895 13.8588L3.74103 14.1467Z"/>
<path d="M22.4483 21.3889H8.05242C6.21766 21.3889 4.73029 19.9016 4.73029 18.0668C4.73029 16.6189 5.6566 15.3873 6.94894 14.9323C6.94635 14.8701 6.94504 14.8075 6.94504 14.7447C6.94504 12.2983 8.9282 10.3152 11.3745 10.3152C11.4509 10.3152 11.5268 10.3171 11.6022 10.3209C12.3233 7.7616 14.6751 5.88567 17.4651 5.88567C20.8288 5.88567 23.5557 8.61251 23.5557 11.9762C23.5557 12.2074 23.5428 12.4355 23.5177 12.6599C25.4474 13.1383 26.8778 14.8818 26.8778 16.9594C26.8778 19.4058 24.8947 21.3889 22.4483 21.3889Z"/>
<path d="M11.3584 25.8508L12.8303 22.907C12.9561 22.6553 13.2133 22.4963 13.4947 22.4963C14.0469 22.4963 14.4061 23.0775 14.1591 23.5714L12.6872 26.5152C12.5614 26.7668 12.3042 26.9258 12.0228 26.9258C11.4706 26.9258 11.1114 26.3447 11.3584 25.8508Z"/>
<path d="M14.6805 25.8508L16.1524 22.907C16.2783 22.6553 16.5355 22.4963 16.8168 22.4963C17.3691 22.4963 17.7282 23.0775 17.4813 23.5714L16.0094 26.5152C15.8835 26.7668 15.6263 26.9258 15.3449 26.9258C14.7927 26.9258 14.4336 26.3447 14.6805 25.8508Z"/>
</g>
<defs>
<clipPath id="clip0_1123_701">
<rect width="26.577" height="26.577" transform="translate(0.300781 0.348783)"/>
</clipPath>
</defs>
</svg>
